<?xml version="1.0" encoding="UTF-8" standalone="no"?>
<!-- Created with Inkscape (http://www.inkscape.org/) -->

<svg
   xmlns:dc="http://purl.org/dc/elements/1.1/"
   xmlns:cc="http://creativecommons.org/ns#"
   xmlns:rdf="http://www.w3.org/1999/02/22-rdf-syntax-ns#"
   xmlns:svg="http://www.w3.org/2000/svg"
   xmlns="http://www.w3.org/2000/svg"
   xmlns:sodipodi="http://sodipodi.sourceforge.net/DTD/sodipodi-0.dtd"
   xmlns:inkscape="http://www.inkscape.org/namespaces/inkscape"
   width="240.164"
   height="240"
   id="svg3804"
   version="1.1"
   inkscape:version="0.48.4 r9939"
   sodipodi:docname="codepen-full.svg">
  <defs
     id="defs3806" />
  <sodipodi:namedview
     inkscape:zoom="1.4142136"
     inkscape:cx="87.850786"
     inkscape:cy="122.36013"
     inkscape:window-width="1280"
     inkscape:window-height="895"
     inkscape:window-x="0"
     inkscape:window-y="0"
     inkscape:window-maximized="1"
     inkscape:current-layer="svg3804"
     id="namedview4"
     showgrid="false" />
  <g
     id="g2997">
    <path
       inkscape:connector-curvature="0"
       d="m 15.093,108.9695 c 2.696,0 5.168,0.975 7.086,2.586 l 2.61,-3.111 c -2.624,-2.206 -6.007,-3.538 -9.696,-3.538 -8.322,0 -15.093,6.771 -15.093,15.093 0,8.322 6.771,15.094 15.093,15.094 3.689,0 7.072,-1.332 9.696,-3.539 l -2.61,-3.11 c -1.918,1.612 -4.39,2.585 -7.086,2.585 -6.081,0 -11.029,-4.948 -11.029,-11.029 0,-6.081 4.948,-11.031 11.029,-11.031 z"
       id="char-c" />
    <path
       d="m 98.645,105.7785 h -8.127 c -1.122,0 -2.032,0.91 -2.032,2.031 v 24.381 c 0,1.123 0.91,2.031 2.032,2.031 h 8.127 c 7.842,0 14.222,-6.379 14.222,-14.223 0,-7.842 -6.38,-14.22 -14.222,-14.22 z m 0,24.381 h -6.096 v -20.316 h 6.096 c 5.602,0 10.159,4.557 10.159,10.158 0,5.601 -4.558,10.158 -10.159,10.158 z"
       id="char-d"
       inkscape:connector-curvature="0" />
    <path
       inkscape:connector-curvature="0"
       d="m 123.868,107.809 v 24.381 c 0,1.123 0.91,2.031 2.032,2.031 h 16.932 v -4.063 h -14.899 v -8.127 h 9.481 v -4.063 h -9.481 v -8.127 h 14.899 v -4.062 H 125.9 c -1.121,-10e-4 -2.032,0.909 -2.032,2.03 z"
       id="char-e" />
    <path
       inkscape:connector-curvature="0"
       d="m 185.371,107.809 v 24.381 c 0,1.123 0.908,2.031 2.031,2.031 h 16.932 v -4.063 h -14.899 v -8.127 h 9.481 v -4.063 h -9.481 v -8.127 h 14.899 v -4.062 h -16.932 c -1.12,-10e-4 -2.031,0.909 -2.031,2.03 z"
       id="char-e2" />
    <path
       inkscape:connector-curvature="0"
       d="m 166.034,105.7775 h -8.804 c -1.122,0 -2.032,0.91 -2.032,2.031 v 26.414 h 4.063 v -12.191 h 6.772 c 4.48,0 8.127,-3.646 8.127,-8.127 0,-4.481 -3.644,-8.127 -8.126,-8.127 z m 0,12.189 h -6.771 v -8.127 h 6.771 c 2.242,0 4.063,1.822 4.063,4.063 0.001,2.243 -1.821,4.064 -4.063,4.064 z"
       id="char-p" />
    <path
       inkscape:connector-curvature="0"
       d="m 236.1,105.77704 v 20.801 l -16.725,-20.07 c -0.549,-0.658 -1.448,-0.901 -2.254,-0.609 -0.805,0.292 -1.34,1.055 -1.34,1.91 v 26.414 h 4.063 v -20.801 l 16.726,20.069 c 0.395,0.474 0.969,0.731 1.562,0.731 0.231,0 0.466,-0.041 0.69,-0.123 0.806,-0.291 1.342,-1.055 1.342,-1.91 v -26.412 H 236.1 z"
       id="char-n" />
    <path
       inkscape:connector-curvature="0"
       d="m 76.944,113.07388 c -0.01,-0.053 -0.02,-0.105 -0.033,-0.156 -0.008,-0.031 -0.02,-0.06 -0.029,-0.091 -0.015,-0.046 -0.029,-0.091 -0.047,-0.136 -0.014,-0.031 -0.027,-0.061 -0.042,-0.09 -0.021,-0.043 -0.041,-0.084 -0.063,-0.125 -0.018,-0.028 -0.035,-0.057 -0.054,-0.086 -0.024,-0.039 -0.051,-0.075 -0.078,-0.112 -0.021,-0.026 -0.042,-0.054 -0.064,-0.08 -0.029,-0.035 -0.061,-0.067 -0.092,-0.101 -0.025,-0.025 -0.049,-0.049 -0.075,-0.073 -0.033,-0.031 -0.069,-0.06 -0.105,-0.089 -0.027,-0.021 -0.055,-0.043 -0.084,-0.063 -0.01,-0.008 -0.02,-0.017 -0.031,-0.022 L 56.337,98.641875 c -0.626,-0.417 -1.44,-0.417 -2.065,0 L 34.459,111.84688 c -0.011,0.008 -0.02,0.017 -0.03,0.023 -0.029,0.02 -0.057,0.042 -0.085,0.064 -0.036,0.027 -0.071,0.057 -0.105,0.088 -0.025,0.023 -0.05,0.047 -0.074,0.072 -0.032,0.033 -0.062,0.066 -0.093,0.10201 -0.022,0.025 -0.043,0.053 -0.063,0.08 -0.028,0.037 -0.054,0.074 -0.079,0.113 -0.018,0.029 -0.036,0.057 -0.053,0.086 -0.023,0.041 -0.044,0.082 -0.063,0.123 -0.015,0.031 -0.028,0.061 -0.042,0.091 -0.018,0.044 -0.033,0.09 -0.048,0.136 -0.01,0.031 -0.021,0.061 -0.028,0.092 -0.014,0.051 -0.023,0.102 -0.033,0.155 -0.005,0.026 -0.011,0.054 -0.015,0.08 -0.011,0.081 -0.017,0.161 -0.017,0.244 v 13.207 c 0,0.081 0.006,0.163 0.017,0.243 0.004,0.026 0.01,0.054 0.015,0.08 0.01,0.053 0.02,0.104 0.033,0.155 0.008,0.031 0.019,0.06 0.028,0.091 0.015,0.047 0.03,0.092 0.048,0.137 0.014,0.031 0.027,0.061 0.042,0.091 0.02,0.042 0.04,0.083 0.063,0.124 0.017,0.029 0.035,0.058 0.053,0.086 0.025,0.039 0.051,0.076 0.079,0.113 0.021,0.027 0.041,0.054 0.063,0.08 0.03,0.035 0.061,0.067 0.093,0.102 0.024,0.025 0.049,0.049 0.074,0.072 0.034,0.031 0.069,0.06 0.105,0.088 0.028,0.021 0.056,0.044 0.085,0.064 0.011,0.008 0.02,0.017 0.03,0.022 l 19.811,13.207 c 0.312,0.209 0.672,0.313 1.032,0.313 0.36,0 0.721,-0.104 1.033,-0.313 l 19.81,-13.207 c 0.012,-0.007 0.021,-0.017 0.031,-0.022 0.029,-0.021 0.057,-0.043 0.084,-0.064 0.036,-0.028 0.072,-0.057 0.105,-0.088 0.026,-0.023 0.05,-0.047 0.075,-0.072 0.031,-0.033 0.062,-0.066 0.092,-0.102 0.022,-0.026 0.044,-0.053 0.064,-0.08 0.027,-0.037 0.054,-0.074 0.078,-0.113 0.019,-0.028 0.036,-0.057 0.054,-0.086 0.022,-0.041 0.043,-0.082 0.063,-0.124 0.015,-0.03 0.028,-0.06 0.042,-0.091 0.018,-0.045 0.032,-0.09 0.047,-0.137 0.01,-0.031 0.021,-0.06 0.029,-0.091 0.014,-0.051 0.023,-0.103 0.033,-0.155 0.004,-0.026 0.011,-0.054 0.015,-0.08 0.01,-0.08 0.017,-0.162 0.017,-0.243 v -13.207 c 0,-0.083 -0.007,-0.163 -0.017,-0.244 -0.003,-0.023 -0.009,-0.051 -0.013,-0.078 z m -21.642,11.333 -6.587,-4.405 6.587,-4.406 6.588,4.406 -6.588,4.405 z m -1.862,-12.047 -8.075,5.401 -6.518,-4.36 14.593,-9.729 v 8.68799 z m -11.425,7.642 -4.66,3.116 v -6.233 l 4.66,3.117 z m 3.35,2.24 8.075,5.4 v 8.688 l -14.593,-9.729 6.518,-4.359 z m 11.799,5.4 8.075,-5.4 6.519,4.359 -14.594,9.729 v -8.688 l 0,0 z m 11.426,-7.64 4.66,-3.117 v 6.232 l -4.66,-3.115 z m -3.35,-2.242 -8.075,-5.4 v -8.688 l 14.594,9.729 -6.519,4.359 z"
       id="codepen-logo" />
  </g>
  <metadata
     id="metadata4449">
    <rdf:RDF>
      <cc:Work
         rdf:about="">
        <dc:title />
        <dc:format>image/svg+xml</dc:format>
        <dc:type
           rdf:resource="http://purl.org/dc/dcmitype/StillImage" />
      </cc:Work>
    </rdf:RDF>
  </metadata>
</svg>
