<?xml version="1.0" encoding="UTF-8" standalone="no"?>
<!-- Created with Inkscape (http://www.inkscape.org/) -->

<svg
   xmlns:svg="http://www.w3.org/2000/svg"
   xmlns="http://www.w3.org/2000/svg"
   xmlns:sodipodi="http://sodipodi.sourceforge.net/DTD/sodipodi-0.dtd"
   xmlns:inkscape="http://www.inkscape.org/namespaces/inkscape"
   width="240.00002"
   height="239.99307"
   id="svg3804"
   version="1.1"
   inkscape:version="0.48.4 r9939"
   sodipodi:docname="codepen-logo.svg">
  <defs
     id="defs3806" />
  <sodipodi:namedview
     inkscape:zoom="2"
     inkscape:cx="32.783644"
     inkscape:cy="158.01867"
     inkscape:window-width="1280"
     inkscape:window-height="895"
     inkscape:window-x="0"
     inkscape:window-y="0"
     inkscape:window-maximized="1"
     inkscape:current-layer="svg3804"
     fit-margin-top="0"
     fit-margin-left="0"
     fit-margin-right="0"
     fit-margin-bottom="0" />
  <path
     id="codepen-logo"
     d="m 239.83388,81.645015 c -0.0554,-0.29347 -0.11074,-0.58141 -0.18273,-0.86381 -0.0443,-0.17165 -0.11074,-0.33223 -0.16057,-0.50389 -0.0831,-0.25471 -0.16058,-0.50388 -0.26025,-0.75306 -0.0775,-0.17165 -0.14951,-0.33777 -0.23257,-0.49835 -0.11628,-0.2381 -0.22702,-0.46513 -0.34884,-0.69215 -0.0997,-0.15504 -0.19381,-0.31562 -0.29901,-0.4762 -0.1329,-0.21596 -0.2824,-0.4153 -0.43191,-0.62017 -0.11628,-0.14397 -0.23256,-0.29901 -0.35438,-0.44298 -0.16058,-0.1938 -0.33777,-0.371 -0.50942,-0.55926 -0.13844,-0.13843 -0.27133,-0.27133 -0.4153,-0.40422 -0.18272,-0.17165 -0.38206,-0.33223 -0.58141,-0.49281 -0.1495,-0.11628 -0.30454,-0.2381 -0.46512,-0.34885 -0.0554,-0.0443 -0.11075,-0.0941 -0.17166,-0.12182 L 125.72826,1.731765 c -3.4663,-2.30902 -7.97361,-2.30902 -11.43437,0 L 4.584822,74.850835 c -0.06091,0.0443 -0.110744,0.0941 -0.166116,0.12736 -0.16058,0.11074 -0.315622,0.23256 -0.470665,0.35438 -0.19934,0.14951 -0.393143,0.31562 -0.581408,0.48728 -0.138431,0.12735 -0.276862,0.26025 -0.409755,0.39868 -0.177191,0.18273 -0.343308,0.36545 -0.514962,0.56479 -0.121819,0.13844 -0.238101,0.29348 -0.348845,0.44298 -0.155043,0.20488 -0.299011,0.40976 -0.437441,0.62571 -0.09967,0.16058 -0.19934,0.31562 -0.293473,0.4762 -0.127357,0.22703 -0.243638,0.45405 -0.348846,0.68108 -0.08306,0.17165 -0.155042,0.33777 -0.232563,0.50389 -0.09967,0.24364 -0.182729,0.49835 -0.265787,0.75306 -0.05537,0.17165 -0.116282,0.33777 -0.155042,0.50942 -0.07752,0.2824 -0.127356,0.5648 -0.182729,0.85827 -0.02769,0.14397 -0.06091,0.29901 -0.08306,0.44298 C 0.03322,82.525435 0,82.968415 0,83.428005 v 73.130145 c 0,0.44851 0.03322,0.90257 0.09413,1.34555 0.02215,0.14396 0.05537,0.299 0.08306,0.44297 0.05537,0.29348 0.110745,0.57588 0.182729,0.85827 0.0443,0.17166 0.105207,0.33224 0.155042,0.50389 0.08306,0.26025 0.166117,0.50943 0.265787,0.7586 0.07752,0.17166 0.149505,0.33777 0.232563,0.50389 0.110745,0.23256 0.221489,0.45959 0.348846,0.68661 0.09413,0.16058 0.193803,0.32116 0.293473,0.47621 0.13843,0.21595 0.282398,0.42082 0.437441,0.6257 0.116281,0.14951 0.227026,0.29901 0.348845,0.44298 0.166117,0.1938 0.337771,0.371 0.514962,0.5648 0.132893,0.13843 0.271324,0.27132 0.409755,0.39868 0.188265,0.17165 0.382068,0.33223 0.581408,0.48727 0.155043,0.11629 0.310085,0.24364 0.470665,0.35439 0.06091,0.0443 0.110744,0.0941 0.166116,0.12182 l 109.697988,73.13014 c 1.72762,1.15728 3.72102,1.73315 5.71442,1.73315 1.9934,0 3.99234,-0.57587 5.71996,-1.73315 l 109.69245,-73.13015 c 0.0665,-0.0388 0.11628,-0.0941 0.17165,-0.12181 0.16058,-0.11629 0.31563,-0.2381 0.46513,-0.35439 0.19934,-0.15504 0.39868,-0.31562 0.58141,-0.48727 0.14397,-0.12736 0.27686,-0.26025 0.41529,-0.39868 0.17166,-0.18273 0.34331,-0.36546 0.50943,-0.5648 0.12181,-0.14397 0.24363,-0.29347 0.35438,-0.44298 0.1495,-0.20488 0.29901,-0.40975 0.4319,-0.6257 0.10521,-0.15505 0.19934,-0.31563 0.29901,-0.47621 0.12182,-0.22702 0.2381,-0.45405 0.34885,-0.68661 0.0831,-0.16612 0.15504,-0.33224 0.23256,-0.50389 0.0997,-0.24917 0.17719,-0.49835 0.26025,-0.7586 0.0554,-0.17165 0.11628,-0.33223 0.16058,-0.50389 0.0775,-0.2824 0.12736,-0.57033 0.18273,-0.85827 0.0222,-0.14397 0.0609,-0.29901 0.0831,-0.44298 0.0554,-0.44297 0.0941,-0.89703 0.0941,-1.34554 V 83.428005 c 0,-0.45959 -0.0388,-0.90257 -0.0941,-1.35109 -0.0166,-0.12735 -0.0498,-0.2824 -0.072,-0.4319 z M 119.99723,144.3984 83.523519,120.00692 119.99723,95.609895 156.47648,120.00692 119.99723,144.3984 z M 109.68692,77.691435 64.973813,107.59799 28.882171,83.455685 109.68692,29.584015 v 48.10742 z M 46.424104,120.00692 20.62063,137.26091 v -34.51353 l 25.803474,17.25954 z m 18.549709,12.40338 44.713107,29.90103 v 48.10742 L 28.882171,156.54707 64.973813,132.4103 z m 65.333737,29.90103 44.7131,-29.90103 36.09718,24.13677 -80.81028,53.87168 v -48.10742 l 0,0 z m 63.26834,-42.30441 25.80348,-17.25954 v 34.508 l -25.80348,-17.24846 z m -18.5497,-12.41446 -44.71311,-29.901025 v -48.10742 l 80.81028,53.87167 -36.09717,24.136775 z"
     inkscape:connector-curvature="0" />
</svg>
