<?xml version="1.0" encoding="UTF-8" standalone="no"?>
<!-- Created with Inkscape (http://www.inkscape.org/) -->

<svg
   xmlns:dc="http://purl.org/dc/elements/1.1/"
   xmlns:cc="http://creativecommons.org/ns#"
   xmlns:rdf="http://www.w3.org/1999/02/22-rdf-syntax-ns#"
   xmlns:svg="http://www.w3.org/2000/svg"
   xmlns="http://www.w3.org/2000/svg"
   xmlns:sodipodi="http://sodipodi.sourceforge.net/DTD/sodipodi-0.dtd"
   xmlns:inkscape="http://www.inkscape.org/namespaces/inkscape"
   width="36.468163"
   height="134"
   id="svg5711"
   version="1.1"
   inkscape:version="0.48.4 r9939"
   sodipodi:docname="disney-XS.svg">
  <defs
     id="defs5713" />
  <sodipodi:namedview
     id="base"
     pagecolor="#ffffff"
     bordercolor="#666666"
     borderopacity="1.0"
     inkscape:pageopacity="0.0"
     inkscape:pageshadow="2"
     inkscape:zoom="5.8906022"
     inkscape:cx="-2.5214026"
     inkscape:cy="19.037339"
     inkscape:document-units="px"
     inkscape:current-layer="svg5711"
     showgrid="false"
     fit-margin-top="0"
     fit-margin-left="0"
     fit-margin-right="0"
     fit-margin-bottom="0"
     inkscape:window-width="731"
     inkscape:window-height="481"
     inkscape:window-x="0"
     inkscape:window-y="0"
     inkscape:window-maximized="0" />
  <metadata
     id="metadata5716">
    <rdf:RDF>
      <cc:Work
         rdf:about="">
        <dc:format>image/svg+xml</dc:format>
        <dc:type
           rdf:resource="http://purl.org/dc/dcmitype/StillImage" />
        <dc:title></dc:title>
      </cc:Work>
    </rdf:RDF>
  </metadata>
  <path
     style="fill:#000000;fill-opacity:1"
     inkscape:connector-curvature="0"
     d="m 36.215645,68.776587 c -0.445,-1.317 -1.053,-2.678 -2.12,-3.986 -0.42,-0.581 -0.872,-1.139 -1.351,-1.672 -0.479,-0.534 -0.982,-1.043 -1.512,-1.524 -0.53,-0.482 -1.084,-0.938 -1.66,-1.363 -0.59,-0.485 -1.197,-0.951 -1.818,-1.393 -0.625,-0.441 -1.262,-0.863 -1.917,-1.261 -0.651,-0.397 -1.317,-0.771 -1.997,-1.123 -1.658,-0.842 -3.386,-1.545 -5.16,-2.1 -3.57,-1.115 -7.306,-1.619 -11.0000002,-1.503 -1.286,0.017 -2.578,0.2 -3.891,0.62 -0.413,0.135 -0.812,0.297 -1.202,0.479 -0.389,0.185 -0.767,0.392 -1.133,0.617 -0.365,0.229 -0.71699995,0.478 -1.05299995,0.744 -0.412,0.307 -0.48,0.684 -0.326,1.093 0.081,0.227 0.345,0.418 0.608,0.54 0.133,0.064 0.32599995,0.117 0.54799995,0.142 0.564,0.037 1.21,-0.149 1.84,-0.528 0.143,-0.099 0.368,-0.306 0.304,-0.499 -0.008,-0.086 -0.13,-0.238 -0.256,-0.255 -0.211,-0.052 -0.435,-0.044 -0.658,0.042 0.406,-0.271 0.84,-0.455 1.277,-0.564 0.228,-0.055 0.459,-0.091 1.023,-0.123 0.563,-0.032 1.458,-0.062 2.353,-0.035 1.762,0.052 3.5430002,0.31 5.3020002,0.767 1.517,0.434 3.018,0.92 4.5,1.462 1.48,0.544 2.941,1.145 3.963,1.585 1.021,0.441 1.605,0.728 2.178,1.036 0.57,0.31 1.131,0.644 1.672,1.001 0.543,0.358 1.07,0.738 1.58,1.143 0.631,0.521 1.264,1.045 1.862,1.604 0.601,0.558 1.164,1.152 1.729,1.749 0.3,0.33 0.58,0.676 0.838,1.037 0.539,0.754 0.962,1.541 1.283,2.338 0.217,0.513 0.342,1.063 0.367,1.619 0.025,0.555 -0.05,1.115 -0.221,1.646 -0.168,0.529 -0.434,1.029 -0.775,1.467 -0.346,0.438 -0.767,0.812 -1.44,1.219 -0.675,0.405 -1.604,0.843 -2.566,1.187 -1.936,0.695 -3.985,1.016 -6.008,0.951 -1.338,-0.051 -2.676,-0.172 -4.007,-0.365 l 0,0 -0.07,-7.229 0,0 c 2.583,0.216 5.184,0.738 7.777,1.618 -0.12,0.241 -0.271,0.475 -0.588,0.722 -0.182,0.14 -0.357,0.294 -0.529,0.464 -0.102,0.142 -0.127,0.312 -0.057,0.48 0.021,0.053 0.057,0.102 0.127,0.165 0.068,0.062 0.174,0.145 0.283,0.214 0.301,0.173 0.722,0.256 1.15,0.233 0.659,-0.062 1.256,-0.396 1.898,-1.016 0.181,-0.184 0.332,-0.398 0.449,-0.629 0.407,-0.84 0.395,-1.842 -0.348,-2.803 -0.133,-0.174 -0.281,-0.334 -0.443,-0.479 -0.162,-0.145 -0.34,-0.274 -0.525,-0.389 -1.025,-0.583 -2.096,-1.013 -3.176,-1.287 -0.553,-0.145 -1.118,-0.246 -1.746,-0.338 -1.273,-0.188 -2.729,-0.312 -4.107,-0.324 -0.028,-0.785 -0.107,-1.572 -0.243,-2.354 -0.068,-0.39 -0.149,-0.777 -0.212,-1.05 -0.064,-0.272 -0.11,-0.43 -0.164,-0.586 -0.053,-0.153 -0.114,-0.308 -0.16,-0.42 -0.091,-0.217 -0.149,-0.324 -0.233,-0.481 -0.1,-0.205 -0.366,-0.472 -0.611,-0.573 -0.245,-0.108 -0.518,-0.145 -0.823,0.148 -0.05,0.056 -0.093,0.117 -0.123,0.187 -0.261,0.638 -0.459,1.289 -0.59,1.941 -0.066,0.334 -0.116,0.668 -0.168,1.065 -0.101,0.807 -0.221,1.789 -0.374,2.691 -1.236,0.142 -2.463,0.385 -3.681,0.733 -0.5680002,0.166 -1.1350002,0.376 -1.6950002,0.635 -0.274,0.125 -0.544,0.261 -0.772,0.386 -0.431,0.235 -0.758,0.455 -1.121,0.747 -0.168,0.138 -0.333,0.281 -0.489,0.434 -0.473,0.504 -0.628,1.104 -0.55,1.7 0.073,0.483 0.3,0.917 0.634,1.383 0.092,0.123 0.19,0.24 0.379,0.438 0.189,0.199 0.469,0.482 0.75,0.763 0.543,0.535 1.056,1.018 1.531,1.401 0.23,0.186 0.465,0.364 0.707,0.535 0.242,0.169 0.489,0.332 0.8970002,0.583 0.408,0.251 0.976,0.591 1.546,0.929 0.57,0.339 1.142,0.674 1.715,1.006 0.029,0.129 0.058,0.257 0.089,0.4 0.032,0.144 0.067,0.299 0.118,0.521 0.051,0.221 0.118,0.506 0.186,0.792 0.044,0.175 0.117,0.344 0.216,0.497 0.099,0.149 0.223,0.285 0.366,0.396 0.473,0.36 1.045,0.433 1.564,0.244 0.191,-0.068 0.39,-0.176 0.567,-0.312 0.176,-0.138 0.329,-0.306 0.451,-0.492 0.121,-0.188 0.211,-0.396 0.265,-0.615 0.708,0.099 1.418,0.182 2.131,0.248 0.714,0.064 1.428,0.113 2.029,0.139 1.18,0.049 2.055,0.017 3.061,-0.089 1.363,-0.152 2.855,-0.437 4.229,-0.962 0.896,-0.338 1.762,-0.762 2.575,-1.264 0.817,-0.502 1.584,-1.082 2.289,-1.73 0.255,-0.242 0.498,-0.496 0.726,-0.762 0.479,-0.561 0.869,-1.143 1.188,-1.734 0.824,-1.455 1.023,-3.091 0.549,-4.714 l 0,0 0,0 0,0 z m -25.388,5.74 c -0.423,-0.215 -0.8300002,-0.458 -1.1890002,-0.695 -0.359,-0.235 -0.671,-0.463 -0.973,-0.704 -0.301,-0.24 -0.59,-0.496 -0.866,-0.769 -0.275,-0.27 -0.538,-0.553 -0.683,-0.723 -0.146,-0.17 -0.174,-0.228 -0.19,-0.285 -0.05,-0.182 -0.009,-0.365 0.143,-0.508 0.045,-0.041 0.099,-0.072 0.338,-0.164 0.238,-0.092 0.662,-0.244 1.092,-0.375 0.431,-0.129 0.867,-0.236 1.244,-0.314 0.3770002,-0.08 0.6930002,-0.132 0.9160002,-0.166 0.222,-0.03 0.351,-0.047 0.612,-0.067 0.26,-0.023 0.652,-0.056 1.045,-0.077 0.393,-0.022 0.787,-0.036 1.18,-0.04 l 0,0 0.001,5.789 0,0 c -0.902,-0.172 -1.806,-0.467 -2.67,-0.902 l 0,0 0,0 0,0 z"
     id="path251" />
</svg>
