<?xml version="1.0" encoding="UTF-8" standalone="no"?>
<!-- Created with Inkscape (http://www.inkscape.org/) -->

<svg
   xmlns:dc="http://purl.org/dc/elements/1.1/"
   xmlns:cc="http://creativecommons.org/ns#"
   xmlns:rdf="http://www.w3.org/1999/02/22-rdf-syntax-ns#"
   xmlns:svg="http://www.w3.org/2000/svg"
   xmlns="http://www.w3.org/2000/svg"
   xmlns:sodipodi="http://sodipodi.sourceforge.net/DTD/sodipodi-0.dtd"
   xmlns:inkscape="http://www.inkscape.org/namespaces/inkscape"
   width="212.42212"
   height="134"
   id="svg4431"
   version="1.1"
   inkscape:version="0.48.4 r9939"
   sodipodi:docname="disney-M.svg">
  <defs
     id="defs4433" />
  <sodipodi:namedview
     id="base"
     pagecolor="#ffffff"
     bordercolor="#666666"
     borderopacity="1.0"
     inkscape:pageopacity="0.0"
     inkscape:pageshadow="2"
     inkscape:zoom="1.979899"
     inkscape:cx="24.395568"
     inkscape:cy="33.423402"
     inkscape:document-units="px"
     inkscape:current-layer="layer1"
     showgrid="false"
     fit-margin-top="0"
     fit-margin-left="0"
     fit-margin-right="0"
     fit-margin-bottom="0"
     inkscape:window-width="1280"
     inkscape:window-height="895"
     inkscape:window-x="0"
     inkscape:window-y="0"
     inkscape:window-maximized="1" />
  <metadata
     id="metadata4436">
    <rdf:RDF>
      <cc:Work
         rdf:about="">
        <dc:format>image/svg+xml</dc:format>
        <dc:type
           rdf:resource="http://purl.org/dc/dcmitype/StillImage" />
        <dc:title></dc:title>
      </cc:Work>
    </rdf:RDF>
  </metadata>
  <g
     inkscape:label="Layer 1"
     inkscape:groupmode="layer"
     id="layer1"
     transform="translate(-268.78894,-426.74418)">
    <g
       id="g5006"
       transform="translate(0,-38.618005)">
      <path
         style="fill:#000000;fill-opacity:1"
         inkscape:connector-curvature="0"
         d="m 399.22102,543.33576 c 0.023,0.276 0.09,0.551 0.201,0.806 0.109,0.254 0.262,0.49 0.447,0.693 0.652,0.697 1.461,0.914 2.258,0.804 0.449,-0.09 0.898,-0.263 1.354,-0.581 0.529,-0.395 0.715,-0.863 0.764,-1.339 0.074,-1.287 0.117,-2.576 0.123,-3.864 0.006,-1.29 -0.021,-2.578 -0.057,-3.661 -0.033,-1.083 -0.072,-1.958 -0.117,-2.833 -0.045,-0.876 -0.096,-1.751 -0.135,-2.312 -0.041,-0.562 -0.066,-0.812 -0.105,-1.061 -0.035,-0.247 -0.084,-0.493 -0.141,-0.737 -0.059,-0.241 -0.125,-0.482 -0.193,-0.688 -0.174,-0.515 -0.385,-0.912 -0.852,-1.378 -0.43,-0.447 -1,-0.569 -1.559,-0.375 -0.178,0.062 -0.342,0.164 -0.48,0.292 -0.33,0.29 -0.432,0.706 -0.555,1.078 -0.064,0.211 -0.117,0.426 -0.16,0.642 -0.043,0.216 -0.076,0.437 -0.113,0.776 -0.037,0.342 -0.078,0.809 -0.109,1.272 -0.029,0.469 -0.055,0.936 -0.086,1.479 -0.055,1.104 -0.146,2.43 -0.314,3.656 -0.368,2.424 -0.425,4.879 -0.171,7.331 l 0,0 z"
         id="path209" />
      <path
         style="fill:#000000;fill-opacity:1"
         inkscape:connector-curvature="0"
         d="m 438.55102,532.25476 c -0.516,-1.856 -1.018,-3.715 -1.506,-5.571 l 0,0 1.506,5.571 0,0 z"
         id="path211" />
      <path
         style="fill:#000000;fill-opacity:1"
         inkscape:connector-curvature="0"
         d="m 438.55102,532.25476 0.479,2.031 0,0 c 0.221,0.941 0.441,1.885 0.326,2.039 -0.113,0.156 -0.566,-0.472 -1.02,-1.102 -0.322,-0.385 -0.641,-0.774 -1.338,-1.66 -0.699,-0.886 -1.777,-2.269 -2.422,-3.085 -0.646,-0.815 -0.855,-1.066 -1.074,-1.308 -0.461,-0.507 -0.938,-0.95 -1.422,-1.35 -0.562,-0.406 -1.248,-0.506 -1.936,-0.197 -0.205,0.097 -0.396,0.229 -0.551,0.393 -0.16,0.162 -0.289,0.354 -0.383,0.561 -0.877,1.864 -1.41,3.771 -1.654,5.684 l 0,0 -0.643,3.631 0,0 c -0.42,1.854 -0.385,3.794 0.279,5.728 0.092,0.195 0.221,0.392 0.418,0.577 0.594,0.521 1.33,0.664 2.057,0.445 0.232,-0.073 0.453,-0.188 0.648,-0.335 0.627,-0.479 0.785,-1.104 0.887,-1.713 0.34,-2.604 0.637,-5.212 0.953,-7.818 1.117,2.374 2.539,4.767 4.445,7.142 0.676,0.76 1.35,1.46 2.027,1.73 1.012,0.404 2.051,0.23 3.186,-0.527 0.236,-0.168 0.457,-0.359 0.654,-0.574 0.395,-0.429 0.738,-0.899 1.027,-1.405 0.928,-1.591 1.071,-3.34 1.004,-5.052 -0.043,-1.146 -0.197,-2.299 -0.467,-3.438 -0.244,-1.022 -0.572,-2.026 -0.977,-2.998 -0.402,-0.971 -0.887,-1.91 -1.439,-2.805 -0.557,-0.896 -1.182,-1.744 -1.869,-2.54 -0.602,-0.652 -1.246,-0.961 -1.926,-0.908 -0.168,0.023 -0.332,0.08 -0.479,0.165 -0.55,0.344 -0.688,0.818 -0.646,1.286 0.072,0.616 0.188,1.227 0.344,1.835 l 0,0 1.512,5.568 0,0 z"
         id="path213" />
      <path
         style="fill:#000000;fill-opacity:1"
         inkscape:connector-curvature="0"
         d="m 445.78802,530.06676 c 0.676,0.754 1.434,1.088 2.201,1.221 l 0,0 -1.076,2.366 0,0 c -0.178,0.049 -0.35,0.126 -0.502,0.229 -0.74,0.557 -0.869,1.238 -0.646,1.961 0.062,0.174 0.15,0.338 0.27,0.481 -0.725,1.258 -1.365,2.542 -1.562,3.796 -0.158,1.012 0.234,2.097 0.664,3.122 0.182,0.417 0.395,0.82 0.607,1.226 0.174,0.312 0.396,0.596 0.656,0.84 0.262,0.244 0.561,0.448 0.883,0.599 1.389,0.592 2.996,0.468 4.584,-0.067 1.152,-0.445 2.287,-0.938 3.4,-1.479 1.111,-0.539 2.203,-1.125 2.814,-1.473 0.613,-0.35 0.748,-0.455 0.863,-0.582 0.551,-0.668 0.521,-1.461 0.074,-2.292 -0.123,-0.202 -0.277,-0.385 -0.455,-0.539 -0.9,-0.776 -1.979,-0.568 -2.996,-0.448 -1.096,0.23 -2.15,0.521 -3.227,0.781 -1.117,0.402 -2.234,0.805 -2.457,0.364 -0.221,-0.44 0.453,-1.729 1.127,-3.014 0.369,0.061 0.738,0.096 1.109,0.095 1.227,-0.003 2.447,0.018 3.676,-0.006 0.021,-0.004 0.045,-0.009 0.211,-0.055 0.363,-0.097 1.123,-0.312 1.709,-0.491 0.307,-0.073 0.719,-0.403 0.859,-0.7 0.188,-0.396 0.23,-0.872 0.1,-1.315 -0.064,-0.215 -0.168,-0.419 -0.305,-0.597 -0.422,-0.555 -0.988,-0.685 -1.533,-0.773 -1.312,-0.104 -2.625,-0.14 -3.939,-0.209 l 0,0 0.123,-1.336 0,0 c 1.051,0.06 2.109,0.04 3.164,-0.066 1.516,-0.155 2.934,-0.466 4.354,-0.739 0.309,-0.063 0.623,-0.197 0.922,-0.456 0.562,-0.519 0.689,-1.022 0.385,-1.636 -0.27,-0.454 -0.574,-0.9 -0.936,-1.336 -0.355,-0.396 -0.773,-0.738 -1.232,-1.012 -0.936,-0.557 -2.021,-0.803 -3.07,-0.729 -2.857,0.147 -5.635,0.17 -8.547,1.041 -0.697,0.207 -1.387,0.452 -2.059,0.737 -0.322,0.153 -0.504,0.385 -0.605,0.614 -0.21,0.539 -0.163,1.197 0.392,1.877 l 0,0 z"
         id="path215" />
      <path
         style="fill:#000000;fill-opacity:1"
         inkscape:connector-curvature="0"
         d="m 411.84402,531.63876 c 4.324,-0.509 8.643,-0.986 12.971,-1.527 0.43,-0.09 0.961,-0.209 1.51,-0.709 0.586,-0.558 0.707,-1.028 0.537,-1.574 -0.072,-0.229 -0.318,-0.545 -0.691,-0.862 -0.188,-0.156 -0.395,-0.291 -0.611,-0.399 -0.217,-0.109 -0.447,-0.191 -0.766,-0.27 -0.652,-0.163 -1.543,-0.302 -2.332,-0.37 -0.402,-0.036 -0.812,-0.061 -1.594,-0.061 -0.783,-10e-4 -1.941,0.021 -3.094,0.114 -2.258,0.189 -4.541,0.664 -6.781,1.417 -0.73,0.26 -1.463,0.615 -2.172,1.085 -0.338,0.224 -0.662,0.468 -0.934,0.703 -0.906,0.795 -1.256,1.542 -1.479,2.367 -0.082,0.407 -0.09,0.834 -0.016,1.244 0.074,0.41 0.229,0.807 0.453,1.158 0.225,0.354 0.518,0.662 0.854,0.905 0.656,0.483 1.477,0.625 2.242,0.765 1.514,0.274 3.053,-0.049 4.574,-0.043 1.395,0.013 2.814,-0.011 4.227,0.28 0.631,0.129 1.254,0.312 1.855,0.542 0.604,0.231 1.186,0.515 1.742,0.84 0.395,0.284 0.461,0.638 0.309,1.023 -0.115,0.283 -0.771,0.802 -1.266,1.11 -0.197,0.123 -0.404,0.235 -0.615,0.337 -3.266,1.441 -6.74,1.517 -10.176,0.373 -0.104,-0.057 -0.199,-0.104 -0.305,-0.307 -0.084,-0.228 -0.141,-0.482 0.213,-0.78 0.336,-0.175 0.711,-0.244 1.074,-0.271 0.662,-0.031 1.557,0.133 2.395,0.525 1.346,0.593 2.861,0.801 4.32,0.585 0.729,-0.106 1.439,-0.316 2.109,-0.619 0.146,-0.076 0.283,-0.156 0.424,-0.414 0.092,-0.177 0.123,-0.386 0.086,-0.583 -0.057,-0.284 -0.314,-0.712 -0.82,-1.137 -0.531,-0.422 -1.223,-0.687 -1.896,-0.856 -0.248,-0.061 -0.5,-0.106 -0.973,-0.157 -0.473,-0.051 -1.162,-0.106 -1.855,-0.135 -0.691,-0.027 -1.387,-0.022 -2.08,0.01 -0.691,0.033 -1.385,0.097 -1.871,0.155 -0.486,0.061 -0.771,0.121 -1.051,0.202 -0.277,0.081 -0.549,0.183 -0.811,0.305 -0.262,0.122 -0.516,0.264 -0.73,0.409 -1.047,0.749 -1.354,1.499 -1.447,2.314 -0.018,0.24 0,0.485 0.057,0.723 0.053,0.236 0.143,0.465 0.338,0.803 0.197,0.336 0.502,0.781 0.854,1.186 0.354,0.4 0.756,0.763 1.193,1.072 0.438,0.313 0.91,0.576 1.607,0.853 0.695,0.272 1.617,0.559 2.557,0.761 0.939,0.201 1.895,0.317 2.854,0.342 0.961,0.026 1.92,-0.04 2.607,-0.12 0.687,-0.08 1.1,-0.174 1.508,-0.287 0.408,-0.11 0.812,-0.241 1.205,-0.394 0.396,-0.151 0.779,-0.323 1.105,-0.488 0.324,-0.164 0.588,-0.32 0.838,-0.496 0.25,-0.174 0.49,-0.364 0.715,-0.57 0.73,-0.675 1.127,-1.3 1.365,-1.948 0.086,-0.233 0.156,-0.472 0.205,-0.879 0.107,-0.812 0.078,-2.133 -0.35,-3.22 -0.199,-0.536 -0.469,-1.05 -0.783,-1.491 -0.314,-0.446 -0.682,-0.823 -1.09,-1.142 -0.859,-0.668 -1.871,-1.017 -2.861,-1.104 -2.246,-0.247 -4.502,-0.402 -6.756,-0.775 -0.9,-0.144 -1.798,-0.331 -2.697,-0.52 l 0,0 z"
         id="path217" />
      <path
         style="fill:#000000;fill-opacity:1"
         inkscape:connector-curvature="0"
         d="m 328.21902,535.82876 c 0.167,-1.133 0.373,-2.427 0.686,-3.714 0.162,-0.66 0.354,-1.312 0.53,-1.894 0.177,-0.583 0.336,-1.097 0.482,-1.611 0.145,-0.516 0.275,-1.037 0.353,-1.384 0.149,-0.658 0.138,-0.833 0.134,-1.223 -0.008,-0.319 -0.058,-0.669 -0.275,-0.99 -0.49,-0.687 -1.127,-0.782 -1.765,-0.697 -0.489,0.078 -0.877,0.51 -1.202,0.941 -0.131,0.172 -0.256,0.347 -0.375,0.525 -0.12,0.182 -0.233,0.363 -0.439,0.775 -0.206,0.413 -0.505,1.051 -0.778,1.702 -0.794,1.878 -1.384,3.97 -1.779,5.9 -0.123,0.637 -0.216,1.275 -0.281,1.919 -0.123,1.24 -0.131,2.439 -0.116,3.577 0.006,0.547 0.013,1.097 0.063,1.574 0.049,0.479 0.141,0.888 0.292,1.275 0.15,0.387 0.359,0.751 0.619,1.073 0.5,0.609 1.074,1.042 1.544,1.265 0.802,0.378 1.517,0.431 2.353,0.337 1.12,-0.12 2.196,-0.713 3.313,-1.463 0.258,-0.18 0.51,-0.363 0.881,-0.657 0.752,-0.596 1.842,-1.512 2.771,-2.361 -0.032,0.871 -0.025,1.744 0.021,2.615 0.047,0.871 0.135,1.739 0.215,2.336 0.079,0.598 0.15,0.924 0.243,1.243 0.204,0.678 0.438,1.251 0.84,1.872 0.213,0.327 0.488,0.682 0.819,0.977 0.331,0.294 0.719,0.526 1.136,0.682 0.416,0.152 0.861,0.229 1.16,0.25 0.299,0.021 0.454,-0.017 0.599,-0.073 0.254,-0.108 0.489,-0.25 0.708,-0.616 0.189,-0.327 0.327,-0.76 0.343,-1.157 0.009,-0.205 -0.01,-0.412 -0.016,-0.803 -0.006,-0.39 10e-4,-0.964 -0.001,-1.538 -0.002,-0.575 -0.014,-1.146 -0.014,-2.03 0,-0.883 0.012,-2.072 0.083,-3.26 0.141,-2.349 0.506,-4.71 1.08,-7.05 1.227,-0.316 2.452,-0.639 3.117,-0.818 0.666,-0.18 0.773,-0.215 0.877,-0.258 0.104,-0.043 0.205,-0.093 0.303,-0.148 0.2,-0.11 0.538,-0.39 0.887,-0.745 1.361,-1.422 1.688,-2.979 0.993,-4.604 -0.187,-0.461 -0.424,-0.946 -0.763,-1.411 -0.156,-0.21 -0.33,-0.399 -0.526,-0.562 -0.195,-0.164 -0.415,-0.3 -0.647,-0.407 -0.232,-0.107 -0.479,-0.182 -0.833,-0.238 -0.695,-0.118 -1.734,-0.118 -2.613,0.238 -0.429,0.164 -0.833,0.39 -1.463,0.853 -0.63,0.463 -1.487,1.156 -2.303,1.894 -0.955,-0.08 -1.915,-0.264 -2.862,-0.552 -0.466,-0.143 -0.925,-0.308 -1.268,-0.459 -0.342,-0.152 -0.566,-0.291 -0.765,-0.46 -0.198,-0.171 -0.368,-0.374 -0.493,-0.604 -0.125,-0.228 -0.204,-0.48 -0.282,-0.641 -0.168,-0.318 -0.332,-0.33 -0.509,-0.407 -0.245,-0.068 -0.399,-0.061 -0.624,0.011 -0.295,0.12 -0.608,0.218 -0.905,0.689 -0.162,0.257 -0.346,0.651 -0.429,0.951 -0.083,0.297 -0.064,0.493 -0.032,0.812 0.032,0.319 0.078,0.76 0.205,1.177 0.27,0.842 0.738,1.475 1.673,2.125 0.468,0.333 1.072,0.703 1.683,1.062 0.61,0.356 1.227,0.704 1.852,1.035 -0.444,1.556 -0.789,3.121 -1.039,4.695 l 0,0 -1.801,-0.172 -4.195,1.41 0,0 c -0.478,0.215 -1.019,0.24 -1.56,-0.021 -0.377,-0.261 -0.438,-0.608 -0.175,-0.981 l 0,0 0.06,-0.184 0,0 c 0.061,-0.522 0.13,-1.044 0.21,-1.597 l 0,0 z"
         id="path219" />
      <path
         style="fill:#000000;fill-opacity:1"
         inkscape:connector-curvature="0"
         d="m 288.96302,522.26276 c -0.011,-10e-4 -0.019,-10e-4 -0.028,-10e-4 l 0,0 0.755,0.304 0,0 c -0.243,-0.158 -0.527,-0.272 -0.727,-0.303 l 0,0 0,0 0,0 z"
         id="path221" />
      <path
         style="fill:#000000;fill-opacity:1"
         inkscape:connector-curvature="0"
         d="m 323.16402,540.22776 c -0.012,-0.673 -0.03,-1.347 -0.045,-1.787 -0.016,-0.439 -0.031,-0.643 -0.053,-0.847 -0.023,-0.204 -0.053,-0.406 -0.343,-1.942 -0.29,-1.537 -0.839,-4.406 -1.177,-6.095 -0.337,-1.688 -0.464,-2.192 -0.612,-2.692 -0.289,-0.975 -0.664,-1.946 -1.135,-2.907 -0.091,-0.141 -0.208,-0.265 -0.345,-0.362 -0.136,-0.1 -0.292,-0.171 -0.455,-0.211 -0.334,-0.085 -0.829,-0.026 -1.328,0.157 -0.263,0.104 -0.508,0.256 -0.722,0.44 -0.498,0.419 -0.778,1.107 -1.247,1.662 -0.251,0.325 -0.518,0.636 -0.821,0.992 -0.303,0.354 -0.643,0.755 -0.961,1.17 -0.318,0.416 -0.615,0.848 -1.056,1.541 -0.442,0.691 -1.028,1.646 -1.582,2.619 -0.553,0.974 -1.073,1.965 -1.561,2.973 l 0,0 -1.324,-0.112 0,0 c 0.74,-2.194 1.225,-4.446 1.465,-6.697 0.244,-2.315 0.25,-4.771 -0.082,-7.267 -0.174,-1.27 -0.446,-2.524 -0.816,-3.752 -0.37,-1.226 -0.839,-2.422 -1.212,-3.276 -0.373,-0.854 -0.65,-1.365 -0.948,-1.864 -0.298,-0.5 -0.618,-0.986 -0.961,-1.455 -0.344,-0.471 -0.711,-0.92 -1.178,-1.455 -0.467,-0.534 -1.034,-1.15 -1.605,-1.763 -0.571,-0.613 -1.146,-1.225 -1.589,-1.654 -0.444,-0.435 -0.757,-0.687 -1.097,-0.898 -0.339,-0.213 -0.704,-0.386 -1.085,-0.51 -0.38,-0.125 -0.776,-0.202 -1.037,-0.235 -0.458,-0.058 -0.582,0.011 -0.84,0.152 -0.373,0.252 -0.49,0.58 -0.377,0.923 0.026,0.074 0.065,0.146 0.309,0.439 0.244,0.295 0.692,0.813 1.132,1.343 0.845,1.012 1.575,1.968 2.072,2.852 0.246,0.427 0.473,0.858 0.749,1.436 0.276,0.576 0.601,1.292 0.92,2.01 0.617,1.396 1.186,2.718 1.543,3.978 0.176,0.61 0.314,1.233 0.417,1.861 0.103,0.629 0.168,1.266 0.206,1.965 0.107,2.157 -0.003,4.558 -0.362,6.828 -0.346,2.195 -1.01,4.435 -2.124,6.653 -0.533,1.033 -1.17,2.014 -1.896,2.921 -0.728,0.907 -1.545,1.742 -2.438,2.487 -0.893,0.745 -1.86,1.398 -2.882,1.955 -0.736,0.407 -1.518,0.678 -2.3,0.811 -0.402,0.068 -0.811,0.103 -1.15,0.104 -0.642,0.005 -1.114,-0.096 -1.651,-0.304 -0.251,-0.1 -0.492,-0.224 -0.719,-0.369 -0.242,-0.154 -0.458,-0.352 -0.635,-0.576 -0.371,-0.472 -0.553,-1.046 -0.552,-1.601 0.591,-0.493 1.162,-1.009 1.712,-1.546 0.551,-0.538 1.081,-1.097 1.587,-1.676 0.982,-1.126 1.816,-2.225 2.449,-3.249 0.311,-0.498 0.602,-1.01 0.877,-1.531 0.276,-0.52 0.538,-1.05 0.796,-1.796 0.259,-0.746 0.515,-1.708 0.63,-2.688 0.115,-0.981 0.089,-1.98 -0.076,-2.955 -0.165,-0.976 -0.47,-1.923 -0.727,-2.562 -0.257,-0.64 -0.466,-0.972 -0.717,-1.268 -0.25,-0.295 -0.543,-0.558 -0.867,-0.768 -1.055,-0.672 -2.299,-0.817 -3.502,-0.712 -0.412,0.041 -0.821,0.119 -1.521,0.373 -0.7,0.255 -1.691,0.688 -2.59,1.27 -0.898,0.581 -1.703,1.312 -2.37,2.146 -0.666,0.837 -1.194,1.781 -1.547,2.538 -0.353,0.757 -0.531,1.329 -0.694,1.902 -0.474,1.649 -0.854,3.438 -0.893,5.124 -0.014,0.549 0.006,1.098 0.063,1.642 0.058,0.545 0.154,1.085 0.306,2.104 0.152,1.019 0.36,2.514 0.562,4.01 -0.4,0.447 -0.9,0.702 -1.395,0.812 -0.268,0.062 -0.545,0.08 -0.993,0.013 -0.448,-0.068 -1.065,-0.228 -1.637,-0.488 -0.571,-0.263 -1.095,-0.631 -1.542,-1.077 -0.447,-0.446 -0.817,-0.968 -1.09,-1.537 -0.59,-1.179 -0.589,-2.521 -0.622,-3.802 -0.004,-0.664 0.024,-1.328 0.084,-1.989 0.059,-0.661 0.151,-1.318 0.316,-2.187 0.165,-0.869 0.404,-1.944 0.672,-3.014 0.269,-1.067 0.568,-2.13 0.981,-3.328 0.413,-1.199 0.94,-2.535 1.572,-3.821 0.632,-1.286 1.367,-2.521 2.2,-3.688 0.834,-1.165 1.765,-2.257 2.381,-2.951 0.616,-0.691 0.916,-0.982 1.218,-1.273 0.302,-0.291 0.604,-0.579 0.819,-0.786 0.427,-0.409 0.577,-0.58 0.807,-0.868 0.504,-0.631 0.708,-1.039 0.352,-1.62 -0.23,-0.325 -0.546,-0.388 -0.846,-0.411 -0.109,-0.004 -0.219,0.005 -0.472,0.075 -0.509,0.146 -1.423,0.496 -2.142,0.93 -0.853,0.51 -1.636,1.126 -2.428,1.726 -0.456,0.354 -0.904,0.721 -1.294,1.058 -0.807,0.697 -1.389,1.302 -1.959,1.975 -0.293,0.347 -0.573,0.704 -1.019,1.347 -0.445,0.645 -1.055,1.574 -1.614,2.535 -0.559,0.96 -1.067,1.95 -1.523,2.965 -0.456,1.012 -0.86,2.049 -1.192,3.005 -0.333,0.956 -0.594,1.83 -0.831,2.711 -0.237,0.88 -0.45,1.768 -0.604,2.486 -0.301,1.405 -0.415,2.341 -0.503,3.488 -0.159,2.159 -0.026,4.284 0.757,6.502 0.189,0.511 0.422,1.003 0.711,1.462 0.288,0.459 0.632,0.883 1.022,1.26 0.796,0.764 1.687,1.282 2.527,1.667 0.429,0.197 0.867,0.375 1.313,0.529 1.263,0.435 2.422,0.666 3.593,0.436 1.028,-0.203 1.88,-0.646 2.75,-0.831 0.283,-0.067 0.569,-0.127 0.856,-0.176 0.332,0.383 0.669,0.763 1.01,1.14 0.341,0.378 0.684,0.753 1.163,1.202 0.479,0.45 1.095,0.979 1.773,1.406 0.679,0.43 1.419,0.765 2.19,1.005 0.771,0.239 1.573,0.383 2.663,0.396 1.091,0.011 2.47,-0.112 3.812,-0.405 1.342,-0.292 2.647,-0.756 3.867,-1.381 1.219,-0.625 2.352,-1.415 3.135,-2.021 0.783,-0.604 1.216,-1.022 1.639,-1.454 0.424,-0.428 0.837,-0.863 1.234,-1.314 0.397,-0.451 0.779,-0.917 1.062,-1.283 0.562,-0.725 0.82,-1.159 1.139,-1.735 0.154,-0.283 0.296,-0.574 0.427,-0.871 l 0,0 1.214,0.357 -1.182,3.812 0,0 c -0.206,0.649 -0.246,1.364 -0.081,2.054 0.08,0.338 0.207,0.664 0.363,0.947 0.157,0.282 0.345,0.521 0.572,0.717 0.467,0.397 1.086,0.589 1.664,0.539 0.297,-0.025 0.588,-0.113 0.8,-0.205 0.212,-0.094 0.346,-0.192 0.469,-0.303 0.58,-0.508 0.721,-1.078 0.965,-1.646 0.45,-1.178 0.931,-2.365 1.351,-3.536 0.051,-0.159 0.095,-0.318 0.14,-0.479 l 0,0 4.916,-0.093 0,0 c 0.055,0.59 0.114,1.18 0.149,1.517 0.036,0.337 0.048,0.424 0.065,0.51 0.017,0.085 0.038,0.169 0.064,0.254 0.025,0.083 0.055,0.165 0.135,0.349 0.08,0.183 0.211,0.465 0.353,0.742 0.141,0.276 0.292,0.55 0.425,0.758 0.291,0.458 0.517,0.633 0.806,0.812 0.611,0.329 1.226,0.509 1.883,-0.372 0.196,-0.283 0.278,-0.479 0.364,-0.752 0.102,-0.333 0.189,-0.768 0.226,-1.161 0.02,-0.202 0.029,-0.405 0.031,-0.843 0,-0.45 -0.007,-1.123 -0.019,-1.797 l 0,0 0,0 0,0 z m -36.675,-4.849 c -0.161,-0.619 -0.281,-1.247 -0.36,-1.883 -0.159,-1.292 -0.15,-2.498 0.036,-3.9 0.094,-0.714 0.233,-1.505 0.399,-2.29 0.167,-0.784 0.362,-1.562 0.499,-2.074 0.136,-0.51 0.217,-0.753 0.306,-0.992 0.174,-0.47 0.387,-0.936 0.643,-1.391 0.06,-0.106 0.135,-0.204 0.224,-0.287 0.217,-0.176 0.373,-0.334 0.698,-0.3 l 0,0 -0.056,-0.023 0,0 c 0.292,-0.044 0.587,0.038 0.812,0.327 0.225,0.311 0.374,0.621 0.462,0.959 0.165,0.92 0.171,1.741 0.127,2.635 -0.019,0.354 -0.05,0.708 -0.122,1.236 -0.073,0.528 -0.187,1.23 -0.324,1.928 -0.138,0.699 -0.301,1.395 -0.486,1.997 -0.186,0.605 -0.394,1.121 -0.66,1.605 -0.266,0.483 -0.589,0.938 -0.959,1.352 -0.37,0.412 -0.787,0.782 -1.239,1.101 l 0,0 0,0 0,0 z m 31.248,-0.462 c -0.541,0.405 -1.044,0.312 -1.432,-0.186 0.379,-0.754 0.757,-1.508 1.136,-2.262 l 0,0 0.498,2.191 0,0 c -0.052,0.097 -0.121,0.183 -0.202,0.257 l 0,0 0,0 0,0 z"
         id="path223" />
      <path
         style="fill:#000000;fill-opacity:1"
         inkscape:connector-curvature="0"
         d="m 398.74302,530.68776 c -0.695,-2.062 -1.646,-4.183 -3.312,-6.23 -0.658,-0.904 -1.363,-1.775 -2.11,-2.609 -0.746,-0.834 -1.535,-1.629 -2.361,-2.383 -0.827,-0.756 -1.692,-1.467 -2.594,-2.133 -0.923,-0.759 -1.871,-1.482 -2.845,-2.176 -0.976,-0.69 -1.974,-1.35 -2.991,-1.97 -1.021,-0.621 -2.062,-1.207 -3.123,-1.754 -2.59,-1.313 -5.29,-2.413 -8.062,-3.28 -5.578,-1.744 -11.415,-2.53 -17.188,-2.349 -2.008,0.024 -4.027,0.312 -6.079,0.969 -0.646,0.212 -1.27,0.465 -1.878,0.752 -0.607,0.287 -1.199,0.608 -1.77,0.963 -0.57,0.356 -1.121,0.744 -1.646,1.162 -0.644,0.479 -0.75,1.068 -0.51,1.708 0.126,0.353 0.54,0.654 0.95,0.844 0.208,0.102 0.51,0.184 0.856,0.223 0.881,0.058 1.89,-0.236 2.875,-0.826 0.222,-0.154 0.575,-0.479 0.475,-0.78 -0.013,-0.136 -0.203,-0.373 -0.4,-0.396 -0.33,-0.082 -0.68,-0.07 -1.028,0.063 0.633,-0.423 1.313,-0.712 1.996,-0.881 0.355,-0.087 0.718,-0.146 1.598,-0.195 0.88,-0.051 2.279,-0.095 3.676,-0.054 2.752,0.08 5.537,0.48 8.284,1.196 2.37,0.678 4.716,1.437 7.03,2.285 2.314,0.848 4.596,1.783 6.193,2.476 1.596,0.692 2.508,1.137 3.402,1.62 0.894,0.481 1.767,1.005 2.61,1.562 0.849,0.561 1.672,1.154 2.469,1.784 0.986,0.816 1.977,1.632 2.91,2.503 0.938,0.873 1.818,1.802 2.701,2.732 0.471,0.514 0.906,1.055 1.312,1.622 0.842,1.176 1.502,2.404 2.004,3.648 0.338,0.804 0.535,1.664 0.574,2.532 0.041,0.868 -0.076,1.744 -0.346,2.572 -0.264,0.828 -0.68,1.607 -1.215,2.292 -0.537,0.684 -1.193,1.271 -2.25,1.902 -1.055,0.635 -2.508,1.314 -4.01,1.854 -3.025,1.089 -6.226,1.587 -9.387,1.489 -2.092,-0.081 -4.179,-0.271 -6.261,-0.573 l 0,0 -0.109,-11.294 0,0 c 4.036,0.336 8.099,1.153 12.149,2.529 -0.188,0.377 -0.424,0.739 -0.918,1.128 -0.282,0.218 -0.561,0.458 -0.826,0.724 -0.158,0.221 -0.198,0.488 -0.09,0.751 0.035,0.082 0.09,0.158 0.197,0.259 0.107,0.102 0.271,0.226 0.444,0.331 0.472,0.271 1.127,0.402 1.799,0.366 1.029,-0.095 1.964,-0.616 2.966,-1.583 0.28,-0.289 0.521,-0.622 0.7,-0.983 0.64,-1.312 0.617,-2.878 -0.539,-4.377 -0.207,-0.271 -0.438,-0.521 -0.692,-0.75 -0.254,-0.228 -0.53,-0.43 -0.821,-0.604 -1.604,-0.911 -3.274,-1.58 -4.96,-2.012 -0.866,-0.225 -1.748,-0.386 -2.73,-0.528 -1.99,-0.292 -4.263,-0.488 -6.417,-0.506 -0.043,-1.229 -0.167,-2.457 -0.379,-3.684 -0.106,-0.606 -0.233,-1.213 -0.332,-1.639 -0.099,-0.426 -0.171,-0.672 -0.254,-0.915 -0.083,-0.243 -0.177,-0.482 -0.25,-0.658 -0.142,-0.338 -0.232,-0.507 -0.363,-0.753 -0.157,-0.319 -0.573,-0.734 -0.955,-0.896 -0.382,-0.17 -0.81,-0.224 -1.286,0.23 -0.08,0.085 -0.145,0.186 -0.192,0.291 -0.408,0.997 -0.717,2.015 -0.922,3.036 -0.104,0.52 -0.181,1.042 -0.262,1.664 -0.158,1.261 -0.346,2.794 -0.583,4.205 -1.932,0.222 -3.849,0.601 -5.751,1.146 -0.888,0.263 -1.773,0.592 -2.647,0.991 -0.429,0.196 -0.851,0.409 -1.207,0.604 -0.674,0.367 -1.185,0.713 -1.751,1.167 -0.264,0.214 -0.52,0.438 -0.764,0.677 -0.739,0.788 -0.981,1.726 -0.86,2.656 0.114,0.758 0.468,1.435 0.989,2.159 0.144,0.191 0.298,0.375 0.594,0.688 0.295,0.312 0.731,0.754 1.172,1.19 0.849,0.835 1.649,1.591 2.392,2.189 0.358,0.291 0.726,0.57 1.103,0.836 0.377,0.267 0.764,0.52 1.401,0.911 0.638,0.394 1.525,0.925 2.416,1.452 0.891,0.528 1.784,1.051 2.68,1.569 0.044,0.2 0.089,0.4 0.139,0.626 0.05,0.224 0.105,0.469 0.185,0.813 0.08,0.347 0.185,0.792 0.291,1.238 0.069,0.273 0.184,0.538 0.338,0.774 0.154,0.236 0.349,0.448 0.572,0.621 0.739,0.563 1.633,0.677 2.444,0.383 0.298,-0.107 0.61,-0.273 0.887,-0.487 0.276,-0.214 0.516,-0.478 0.705,-0.771 0.189,-0.295 0.33,-0.619 0.413,-0.96 1.107,0.154 2.218,0.283 3.332,0.387 1.114,0.102 2.229,0.179 3.17,0.218 1.842,0.079 3.209,0.022 4.779,-0.141 2.133,-0.237 4.465,-0.682 6.609,-1.505 1.398,-0.525 2.75,-1.188 4.021,-1.973 1.275,-0.785 2.477,-1.692 3.576,-2.705 0.398,-0.377 0.777,-0.774 1.133,-1.191 0.746,-0.873 1.359,-1.782 1.859,-2.708 1.285,-2.256 1.596,-4.814 0.856,-7.35 l 0,0 0,0 0,0 z m -39.67,8.969 c -0.661,-0.333 -1.296,-0.717 -1.858,-1.086 -0.562,-0.369 -1.049,-0.723 -1.52,-1.101 -0.47,-0.377 -0.921,-0.777 -1.352,-1.199 -0.431,-0.422 -0.84,-0.866 -1.067,-1.131 -0.227,-0.268 -0.271,-0.354 -0.297,-0.447 -0.078,-0.282 -0.014,-0.571 0.223,-0.792 0.071,-0.062 0.155,-0.114 0.528,-0.258 0.373,-0.146 1.035,-0.38 1.708,-0.583 0.672,-0.202 1.355,-0.369 1.944,-0.494 0.588,-0.124 1.083,-0.205 1.43,-0.257 0.347,-0.051 0.548,-0.073 0.956,-0.108 0.407,-0.036 1.02,-0.085 1.634,-0.12 0.614,-0.033 1.229,-0.055 1.843,-0.061 l 0,0 10e-4,9.046 0,0 c -1.409,-0.267 -2.822,-0.729 -4.173,-1.409 l 0,0 0,0 0,0 z"
         id="path225" />
      <path
         style="fill:#000000;fill-opacity:1"
         inkscape:connector-curvature="0"
         d="m 416.11402,513.53076 c -0.053,-0.449 -0.158,-0.746 -0.305,-1.02 -0.146,-0.274 -0.336,-0.523 -0.562,-0.737 -0.754,-0.699 -1.674,-0.907 -2.58,-0.716 -0.09,-0.228 -0.215,-0.438 -0.371,-0.625 -0.344,-0.411 -0.783,-0.651 -1.219,-0.754 -0.795,-0.205 -1.605,-0.309 -2.42,-0.317 -0.406,-0.005 -0.814,0.013 -1.561,0.118 -0.747,0.105 -1.826,0.301 -2.879,0.604 -1.051,0.307 -2.072,0.722 -3.043,1.229 -0.973,0.506 -1.896,1.105 -2.756,1.787 -0.354,0.287 -0.684,0.6 -0.99,0.935 -1.318,1.46 -2.105,3.07 -2.125,4.618 -0.012,0.41 0.027,0.821 0.078,1.157 0.102,0.645 0.254,1.093 0.459,1.62 0.217,0.534 0.555,1.146 0.914,1.816 0.195,0.359 0.389,0.722 0.52,0.962 0.131,0.242 0.195,0.368 0.283,0.478 0.088,0.11 0.197,0.199 0.318,0.269 0.268,0.165 0.73,0.197 1.209,0.134 0.27,-0.04 0.531,-0.123 0.773,-0.245 0.244,-0.121 0.473,-0.279 0.654,-0.499 0.188,-0.218 0.328,-0.498 0.506,-0.552 0.182,-0.055 0.395,0.115 0.613,0.235 0.219,0.121 0.441,0.19 0.672,0.235 0.231,0.045 0.463,0.065 0.838,0.065 0.373,0 0.889,-0.021 1.328,-0.05 0.441,-0.026 0.812,-0.06 1.066,-0.089 0.256,-0.029 0.396,-0.055 0.707,-0.114 0.641,-0.111 1.76,-0.36 2.654,-0.734 0.906,-0.354 1.965,-0.957 3.047,-1.814 1.117,-0.885 2.086,-1.972 2.805,-3.021 0.771,-1.106 1.197,-2.188 1.342,-3.331 0.079,-0.592 0.077,-1.193 0.025,-1.644 l 0,0 0,0 0,0 z m -14.789,2.889 c -0.799,0.728 -1.549,1.508 -2.242,2.336 0.154,-0.634 0.396,-1.244 0.713,-1.812 0.318,-0.567 0.715,-1.092 1.176,-1.552 0.459,-0.461 0.979,-0.86 1.547,-1.183 1.381,-0.777 2.764,-1.226 4.131,-1.446 -0.965,0.484 -1.896,1.037 -2.783,1.646 -0.896,0.612 -1.744,1.283 -2.542,2.011 l 0,0 0,0 0,0 z m 10.576,-0.384 c -0.09,0.495 -0.309,0.994 -0.676,1.424 -0.172,0.202 -0.371,0.382 -0.59,0.531 -0.549,0.359 -1.098,0.719 -1.668,1.042 -1.133,0.608 -2.256,1.232 -3.461,1.451 -1.193,0.24 -2.428,0.188 -3.57,-0.131 0.564,-0.819 1.219,-1.577 1.947,-2.255 0.729,-0.677 1.531,-1.276 2.389,-1.781 0.857,-0.504 1.771,-0.916 2.717,-1.224 0.719,-0.229 1.439,-0.271 2.137,-0.156 0.186,0.03 0.371,0.118 0.521,0.271 0.273,0.301 0.291,0.57 0.254,0.828 l 0,0 0,0 0,0 z"
         id="path227" />
      <path
         style="fill:#000000;fill-opacity:1"
         inkscape:connector-curvature="0"
         d="m 481.20202,533.63876 c -0.02,-0.688 -0.129,-1.373 -0.326,-2.032 -0.195,-0.659 -0.479,-1.292 -0.842,-1.877 -0.359,-0.586 -0.801,-1.124 -1.301,-1.596 -0.967,-0.828 -2.156,-1.062 -3.334,-0.708 -0.377,0.115 -0.732,0.3 -1.648,0.986 -0.918,0.688 -2.396,1.879 -3.83,3.127 -1.432,1.246 -2.812,2.55 -4.146,3.898 0.3,-0.875 0.642,-1.736 1.029,-2.576 0.387,-0.839 0.821,-1.658 1.147,-2.263 0.326,-0.605 0.545,-0.997 0.742,-1.4 0.196,-0.401 0.372,-0.816 0.481,-1.114 0.211,-0.563 0.219,-0.805 0.211,-1.19 -0.011,-0.182 -0.039,-0.362 -0.074,-0.5 -0.039,-0.141 -0.084,-0.236 -0.147,-0.321 -0.428,-0.53 -1.039,-0.325 -1.594,0.035 -0.113,0.079 -0.218,0.168 -0.451,0.405 -0.233,0.235 -0.599,0.621 -0.953,1.011 -0.358,0.39 -0.709,0.785 -1.053,1.187 -0.527,0.63 -1.017,1.29 -1.461,1.979 -0.447,0.688 -0.851,1.403 -1.203,2.143 -0.354,0.738 -0.66,1.501 -0.854,2.027 -0.19,0.527 -0.272,0.816 -0.334,1.109 -0.062,0.292 -0.104,0.59 -0.131,0.888 -0.025,0.299 -0.031,0.599 -0.011,0.988 0.039,0.784 0.185,1.825 0.433,2.746 0.121,0.462 0.269,0.919 0.438,1.365 -0.646,1.379 -1.22,2.791 -1.718,4.23 -0.495,1.438 -0.918,2.901 -1.254,4.386 -0.336,1.482 -0.588,2.986 -0.717,3.895 -0.129,0.907 -0.136,1.22 -0.115,1.528 0.086,1.359 0.736,2.747 2.058,4.146 0.897,0.838 2.013,0.811 3.133,-0.13 0.597,-2.301 1.199,-4.59 1.746,-6.89 l 0,0 0.556,-1.835 0,0 c 0.187,-0.61 0.465,-1.188 0.823,-2.085 0.361,-0.895 0.849,-2.09 1.337,-3.282 0.557,-0.105 1.112,-0.222 1.666,-0.347 0.553,-0.125 1.104,-0.26 1.565,-0.387 0.875,-0.242 1.522,-0.495 2.256,-0.881 0.344,-0.185 0.676,-0.386 1.121,-0.694 0.442,-0.306 0.998,-0.717 1.537,-1.146 0.541,-0.431 1.065,-0.877 1.506,-1.283 0.918,-0.845 1.502,-1.552 2.063,-2.36 1.235,-1.773 1.733,-3.424 1.649,-5.182 l 0,0 0,0 0,0 z m -4.616,2.555 c -0.299,0.479 -0.672,0.907 -1.102,1.274 -0.771,0.631 -1.561,1.2 -2.357,1.723 -0.672,0.413 -1.328,0.391 -1.902,0.147 0.379,-0.857 0.814,-1.691 1.299,-2.492 0.486,-0.803 1.023,-1.571 1.607,-2.306 0.584,-0.73 1.217,-1.427 1.889,-2.077 0.332,-0.31 0.613,-0.284 0.875,-0.203 0.266,0.064 0.549,0.469 0.535,0.718 0.051,1.101 -0.232,2.241 -0.844,3.216 l 0,0 0,0 0,0 z"
         id="path229" />
    </g>
  </g>
</svg>
