<?xml version="1.0" encoding="UTF-8" standalone="no"?>
<!-- Created with Inkscape (http://www.inkscape.org/) -->

<svg
   xmlns:dc="http://purl.org/dc/elements/1.1/"
   xmlns:cc="http://creativecommons.org/ns#"
   xmlns:rdf="http://www.w3.org/1999/02/22-rdf-syntax-ns#"
   xmlns:svg="http://www.w3.org/2000/svg"
   xmlns="http://www.w3.org/2000/svg"
   xmlns:sodipodi="http://sodipodi.sourceforge.net/DTD/sodipodi-0.dtd"
   xmlns:inkscape="http://www.inkscape.org/namespaces/inkscape"
   width="125.15015"
   height="134"
   id="svg5106"
   version="1.1"
   inkscape:version="0.48.4 r9939"
   sodipodi:docname="disney-S.svg">
  <defs
     id="defs5108" />
  <sodipodi:namedview
     id="base"
     pagecolor="#ffffff"
     bordercolor="#666666"
     borderopacity="1.0"
     inkscape:pageopacity="0.0"
     inkscape:pageshadow="2"
     inkscape:zoom="0.98994949"
     inkscape:cx="-57.676306"
     inkscape:cy="-34.352766"
     inkscape:document-units="px"
     inkscape:current-layer="layer1"
     showgrid="false"
     fit-margin-top="0"
     fit-margin-left="0"
     fit-margin-right="0"
     fit-margin-bottom="0"
     inkscape:window-width="731"
     inkscape:window-height="481"
     inkscape:window-x="0"
     inkscape:window-y="413"
     inkscape:window-maximized="0" />
  <metadata
     id="metadata5111">
    <rdf:RDF>
      <cc:Work
         rdf:about="">
        <dc:format>image/svg+xml</dc:format>
        <dc:type
           rdf:resource="http://purl.org/dc/dcmitype/StillImage" />
        <dc:title></dc:title>
      </cc:Work>
    </rdf:RDF>
  </metadata>
  <g
     inkscape:label="Layer 1"
     inkscape:groupmode="layer"
     id="layer1"
     transform="translate(-312.42492,-423.09501)">
    <g
       id="g5653"
       transform="translate(0,-42.267171)">
      <path
         style="fill:#000000;fill-opacity:1"
         inkscape:connector-curvature="0"
         d="m 363.78504,541.42947 c 0.021,0.246 0.082,0.493 0.181,0.723 0.098,0.229 0.236,0.44 0.403,0.626 0.588,0.626 1.315,0.822 2.033,0.722 0.403,-0.08 0.809,-0.233 1.217,-0.522 0.477,-0.354 0.645,-0.775 0.688,-1.205 0.067,-1.157 0.105,-2.318 0.112,-3.479 0.005,-1.16 -0.02,-2.319 -0.052,-3.295 -0.029,-0.975 -0.064,-1.763 -0.106,-2.55 -0.04,-0.789 -0.086,-1.576 -0.122,-2.08 -0.036,-0.506 -0.059,-0.73 -0.094,-0.955 -0.032,-0.223 -0.076,-0.443 -0.127,-0.662 -0.052,-0.219 -0.113,-0.436 -0.173,-0.62 -0.157,-0.463 -0.346,-0.818 -0.767,-1.238 -0.387,-0.403 -0.9,-0.515 -1.404,-0.339 -0.159,0.059 -0.308,0.147 -0.432,0.263 -0.296,0.261 -0.388,0.637 -0.498,0.971 -0.058,0.189 -0.106,0.383 -0.145,0.578 -0.039,0.193 -0.069,0.391 -0.102,0.697 -0.033,0.309 -0.07,0.729 -0.098,1.146 -0.029,0.42 -0.05,0.84 -0.078,1.329 -0.049,0.994 -0.134,2.188 -0.284,3.291 -0.33,2.183 -0.38,4.392 -0.152,6.599 l 0,0 z"
         id="path233" />
      <path
         style="fill:#000000;fill-opacity:1"
         inkscape:connector-curvature="0"
         d="m 399.18104,531.45747 c -0.463,-1.671 -0.915,-3.342 -1.354,-5.014 l 0,0 1.354,5.014 0,0 z"
         id="path235" />
      <path
         style="fill:#000000;fill-opacity:1"
         inkscape:connector-curvature="0"
         d="m 399.18104,531.45747 0.432,1.829 0,0 c 0.199,0.847 0.396,1.694 0.295,1.834 -0.104,0.141 -0.511,-0.425 -0.92,-0.991 -0.289,-0.346 -0.576,-0.695 -1.203,-1.494 -0.629,-0.797 -1.6,-2.042 -2.18,-2.776 -0.58,-0.732 -0.771,-0.958 -0.967,-1.177 -0.415,-0.454 -0.844,-0.855 -1.28,-1.215 -0.505,-0.362 -1.123,-0.455 -1.739,-0.177 -0.186,0.085 -0.356,0.206 -0.496,0.354 -0.145,0.146 -0.26,0.317 -0.344,0.506 -0.789,1.676 -1.271,3.393 -1.49,5.112 l 0,0 -0.576,3.269 0,0 c -0.379,1.668 -0.348,3.415 0.25,5.155 0.084,0.176 0.199,0.353 0.378,0.519 0.532,0.469 1.196,0.598 1.852,0.4 0.208,-0.065 0.406,-0.168 0.582,-0.302 0.563,-0.431 0.706,-0.994 0.8,-1.543 0.307,-2.342 0.571,-4.689 0.856,-7.035 1.006,2.138 2.285,4.29 4,6.429 0.608,0.683 1.215,1.312 1.823,1.557 0.912,0.364 1.847,0.208 2.869,-0.475 0.211,-0.15 0.41,-0.324 0.588,-0.519 0.355,-0.384 0.664,-0.809 0.925,-1.264 0.835,-1.432 0.965,-3.006 0.903,-4.547 -0.039,-1.029 -0.178,-2.068 -0.42,-3.094 -0.221,-0.922 -0.516,-1.823 -0.877,-2.699 -0.365,-0.873 -0.799,-1.718 -1.299,-2.523 -0.498,-0.807 -1.062,-1.569 -1.682,-2.287 -0.54,-0.588 -1.121,-0.864 -1.733,-0.816 -0.151,0.021 -0.299,0.07 -0.431,0.148 -0.494,0.31 -0.619,0.736 -0.582,1.156 0.066,0.555 0.169,1.104 0.311,1.652 l 0,0 1.355,5.014 0,0 z"
         id="path237" />
      <path
         style="fill:#000000;fill-opacity:1"
         inkscape:connector-curvature="0"
         d="m 405.69504,529.48747 c 0.607,0.679 1.288,0.979 1.98,1.1 l 0,0 -0.969,2.128 0,0 c -0.16,0.045 -0.314,0.114 -0.451,0.207 -0.666,0.501 -0.782,1.116 -0.584,1.767 0.056,0.155 0.137,0.305 0.242,0.436 -0.651,1.132 -1.229,2.287 -1.406,3.416 -0.143,0.91 0.211,1.885 0.598,2.812 0.164,0.373 0.355,0.735 0.547,1.101 0.156,0.28 0.357,0.537 0.592,0.757 0.235,0.22 0.504,0.402 0.793,0.539 1.25,0.533 2.698,0.422 4.125,-0.062 1.039,-0.4 2.062,-0.845 3.062,-1.329 1.002,-0.484 1.982,-1.014 2.535,-1.325 0.552,-0.312 0.673,-0.41 0.775,-0.523 0.496,-0.602 0.471,-1.314 0.067,-2.062 -0.11,-0.183 -0.25,-0.347 -0.409,-0.484 -0.811,-0.698 -1.781,-0.511 -2.697,-0.403 -0.985,0.207 -1.936,0.47 -2.903,0.702 -1.005,0.362 -2.011,0.727 -2.212,0.327 -0.198,-0.396 0.408,-1.554 1.016,-2.711 0.332,0.053 0.663,0.086 0.997,0.085 1.104,-0.002 2.205,0.017 3.31,-0.004 0.021,-0.005 0.041,-0.009 0.189,-0.05 0.326,-0.088 1.011,-0.28 1.538,-0.441 0.276,-0.066 0.646,-0.364 0.772,-0.632 0.17,-0.355 0.207,-0.784 0.09,-1.183 -0.059,-0.195 -0.15,-0.379 -0.274,-0.538 -0.379,-0.497 -0.89,-0.615 -1.379,-0.695 -1.181,-0.093 -2.363,-0.126 -3.545,-0.188 l 0,0 0.11,-1.203 0,0 c 0.945,0.056 1.896,0.037 2.848,-0.06 1.363,-0.141 2.64,-0.42 3.918,-0.666 0.275,-0.058 0.562,-0.178 0.83,-0.409 0.505,-0.468 0.619,-0.922 0.345,-1.472 -0.241,-0.41 -0.519,-0.812 -0.841,-1.203 -0.321,-0.356 -0.698,-0.666 -1.11,-0.912 -0.841,-0.5 -1.817,-0.723 -2.764,-0.654 -2.572,0.133 -5.071,0.152 -7.692,0.937 -0.626,0.187 -1.246,0.408 -1.851,0.664 -0.292,0.138 -0.453,0.347 -0.548,0.553 -0.186,0.474 -0.144,1.066 0.356,1.678 l 0,0 z"
         id="path239" />
      <path
         style="fill:#000000;fill-opacity:1"
         inkscape:connector-curvature="0"
         d="m 375.14704,530.90247 c 3.89,-0.458 7.778,-0.889 11.673,-1.375 0.387,-0.08 0.865,-0.188 1.359,-0.639 0.527,-0.503 0.636,-0.925 0.482,-1.416 -0.064,-0.207 -0.287,-0.49 -0.621,-0.775 -0.17,-0.141 -0.355,-0.262 -0.553,-0.359 -0.195,-0.098 -0.402,-0.171 -0.688,-0.242 -0.588,-0.147 -1.389,-0.271 -2.098,-0.334 -0.363,-0.03 -0.731,-0.054 -1.437,-0.054 -0.706,0 -1.748,0.02 -2.784,0.104 -2.031,0.171 -4.086,0.598 -6.103,1.274 -0.659,0.234 -1.316,0.555 -1.955,0.979 -0.304,0.202 -0.596,0.422 -0.841,0.633 -0.815,0.716 -1.129,1.388 -1.33,2.13 -0.075,0.368 -0.08,0.751 -0.014,1.12 0.068,0.37 0.206,0.726 0.409,1.044 0.202,0.316 0.464,0.596 0.769,0.813 0.591,0.435 1.328,0.562 2.019,0.688 1.362,0.246 2.747,-0.043 4.115,-0.038 1.256,0.01 2.532,-0.01 3.805,0.252 0.567,0.116 1.129,0.28 1.669,0.489 0.544,0.206 1.066,0.461 1.566,0.756 0.357,0.254 0.416,0.572 0.279,0.92 -0.104,0.255 -0.692,0.723 -1.141,0.998 -0.178,0.113 -0.363,0.215 -0.553,0.305 -2.939,1.298 -6.064,1.365 -9.157,0.334 -0.094,-0.049 -0.18,-0.093 -0.275,-0.272 -0.077,-0.206 -0.125,-0.437 0.191,-0.703 0.303,-0.156 0.64,-0.221 0.966,-0.244 0.596,-0.025 1.402,0.121 2.157,0.473 1.211,0.535 2.571,0.722 3.886,0.527 0.655,-0.094 1.299,-0.283 1.9,-0.557 0.13,-0.068 0.255,-0.141 0.38,-0.371 0.082,-0.16 0.11,-0.349 0.077,-0.525 -0.051,-0.254 -0.283,-0.641 -0.738,-1.022 -0.479,-0.377 -1.102,-0.617 -1.706,-0.77 -0.223,-0.056 -0.448,-0.097 -0.876,-0.143 -0.425,-0.046 -1.046,-0.098 -1.669,-0.122 -0.623,-0.024 -1.249,-0.021 -1.871,0.01 -0.625,0.029 -1.246,0.086 -1.685,0.139 -0.438,0.058 -0.694,0.109 -0.945,0.183 -0.25,0.071 -0.494,0.166 -0.731,0.274 -0.236,0.109 -0.464,0.237 -0.657,0.367 -0.942,0.674 -1.217,1.351 -1.302,2.084 -0.016,0.217 0.001,0.438 0.05,0.65 0.048,0.213 0.127,0.42 0.304,0.723 0.178,0.303 0.452,0.702 0.771,1.066 0.319,0.36 0.681,0.686 1.074,0.967 0.393,0.28 0.818,0.518 1.445,0.765 0.626,0.247 1.455,0.505 2.3,0.687 0.846,0.181 1.707,0.284 2.57,0.308 0.863,0.022 1.727,-0.035 2.346,-0.105 0.617,-0.072 0.989,-0.157 1.355,-0.26 0.367,-0.101 0.729,-0.219 1.086,-0.354 0.354,-0.135 0.701,-0.289 0.994,-0.438 0.291,-0.147 0.528,-0.289 0.754,-0.444 0.226,-0.158 0.44,-0.331 0.645,-0.517 0.656,-0.605 1.014,-1.169 1.229,-1.754 0.078,-0.209 0.14,-0.425 0.185,-0.791 0.097,-0.729 0.069,-1.92 -0.313,-2.896 -0.181,-0.483 -0.422,-0.944 -0.705,-1.344 -0.282,-0.399 -0.611,-0.739 -0.98,-1.026 -0.773,-0.602 -1.686,-0.914 -2.574,-0.994 -2.021,-0.224 -4.053,-0.361 -6.08,-0.697 -0.812,-0.143 -1.62,-0.311 -2.428,-0.481 l 0,0 z"
         id="path241" />
      <path
         style="fill:#000000;fill-opacity:1"
         inkscape:connector-curvature="0"
         d="m 363.35404,530.04747 c -0.625,-1.854 -1.481,-3.766 -2.981,-5.606 -0.591,-0.815 -1.226,-1.601 -1.899,-2.351 -0.671,-0.751 -1.381,-1.467 -2.126,-2.145 -0.745,-0.679 -1.523,-1.318 -2.334,-1.918 -0.829,-0.685 -1.683,-1.336 -2.56,-1.959 -0.877,-0.623 -1.774,-1.215 -2.692,-1.773 -0.917,-0.56 -1.855,-1.086 -2.811,-1.579 -2.331,-1.183 -4.761,-2.171 -7.257,-2.95 -5.02,-1.569 -10.273,-2.278 -15.469,-2.114 -1.807,0.021 -3.625,0.281 -5.471,0.871 -0.581,0.19 -1.143,0.419 -1.69,0.678 -0.546,0.258 -1.079,0.547 -1.593,0.866 -0.513,0.32 -1.009,0.669 -1.481,1.046 -0.58,0.432 -0.675,0.961 -0.459,1.537 0.113,0.316 0.486,0.589 0.855,0.76 0.187,0.09 0.459,0.164 0.77,0.199 0.793,0.052 1.701,-0.213 2.587,-0.744 0.2,-0.138 0.518,-0.43 0.428,-0.701 -0.012,-0.123 -0.183,-0.336 -0.36,-0.358 -0.297,-0.072 -0.612,-0.062 -0.925,0.059 0.57,-0.381 1.182,-0.641 1.796,-0.793 0.319,-0.078 0.646,-0.131 1.438,-0.176 0.792,-0.045 2.051,-0.086 3.308,-0.05 2.477,0.072 4.983,0.436 7.456,1.076 2.133,0.611 4.244,1.295 6.327,2.058 2.083,0.765 4.137,1.605 5.574,2.229 1.438,0.622 2.259,1.022 3.062,1.458 0.804,0.435 1.589,0.904 2.351,1.406 0.764,0.505 1.505,1.039 2.222,1.606 0.888,0.733 1.779,1.468 2.621,2.252 0.841,0.785 1.635,1.621 2.43,2.459 0.422,0.464 0.816,0.95 1.181,1.461 0.757,1.059 1.352,2.166 1.804,3.283 0.304,0.724 0.48,1.497 0.517,2.279 0.036,0.781 -0.069,1.568 -0.31,2.314 -0.238,0.744 -0.611,1.446 -1.093,2.062 -0.483,0.616 -1.075,1.144 -2.026,1.713 -0.95,0.57 -2.256,1.184 -3.608,1.668 -2.723,0.979 -5.604,1.429 -8.449,1.34 -1.883,-0.071 -3.761,-0.242 -5.635,-0.516 l 0,0 -0.098,-10.164 0,0 c 3.632,0.302 7.289,1.037 10.935,2.275 -0.169,0.34 -0.381,0.666 -0.826,1.016 -0.254,0.195 -0.503,0.412 -0.744,0.65 -0.143,0.198 -0.179,0.438 -0.081,0.677 0.032,0.073 0.081,0.142 0.177,0.233 0.097,0.09 0.245,0.201 0.4,0.297 0.425,0.244 1.015,0.361 1.621,0.33 0.926,-0.086 1.767,-0.557 2.667,-1.427 0.253,-0.26 0.468,-0.56 0.632,-0.885 0.574,-1.181 0.554,-2.59 -0.485,-3.939 -0.186,-0.243 -0.395,-0.471 -0.625,-0.676 -0.229,-0.205 -0.477,-0.387 -0.738,-0.545 -1.444,-0.819 -2.949,-1.422 -4.465,-1.812 -0.78,-0.2 -1.573,-0.345 -2.457,-0.476 -1.792,-0.263 -3.837,-0.438 -5.775,-0.455 -0.039,-1.104 -0.15,-2.212 -0.341,-3.313 -0.096,-0.547 -0.21,-1.092 -0.299,-1.476 -0.089,-0.384 -0.154,-0.604 -0.229,-0.822 -0.075,-0.219 -0.159,-0.435 -0.225,-0.592 -0.128,-0.306 -0.209,-0.457 -0.327,-0.679 -0.141,-0.287 -0.516,-0.663 -0.859,-0.807 -0.344,-0.152 -0.729,-0.201 -1.158,0.209 -0.072,0.077 -0.13,0.166 -0.173,0.262 -0.367,0.896 -0.645,1.812 -0.83,2.731 -0.094,0.469 -0.163,0.938 -0.236,1.498 -0.142,1.136 -0.311,2.515 -0.525,3.784 -1.738,0.198 -3.464,0.541 -5.176,1.03 -0.799,0.235 -1.596,0.531 -2.382,0.894 -0.386,0.176 -0.766,0.367 -1.086,0.543 -0.606,0.332 -1.066,0.643 -1.576,1.051 -0.237,0.193 -0.468,0.396 -0.688,0.609 -0.665,0.709 -0.883,1.554 -0.774,2.391 0.103,0.683 0.421,1.291 0.89,1.943 0.129,0.173 0.268,0.338 0.534,0.619 0.266,0.28 0.658,0.68 1.055,1.07 0.764,0.751 1.484,1.434 2.152,1.972 0.323,0.261 0.654,0.513 0.993,0.753 0.339,0.237 0.688,0.467 1.261,0.818 0.574,0.354 1.372,0.831 2.174,1.307 0.801,0.477 1.605,0.946 2.412,1.414 0.04,0.18 0.081,0.36 0.125,0.562 0.045,0.201 0.095,0.422 0.167,0.733 0.072,0.312 0.167,0.713 0.262,1.113 0.062,0.246 0.166,0.484 0.304,0.698 0.138,0.212 0.314,0.402 0.515,0.559 0.665,0.508 1.47,0.608 2.2,0.346 0.268,-0.099 0.549,-0.248 0.798,-0.439 0.249,-0.192 0.465,-0.43 0.635,-0.693 0.17,-0.265 0.297,-0.559 0.372,-0.864 0.997,0.139 1.996,0.256 2.999,0.348 1.002,0.092 2.006,0.16 2.854,0.197 1.657,0.07 2.887,0.021 4.303,-0.128 1.918,-0.214 4.016,-0.612 5.947,-1.354 1.26,-0.474 2.475,-1.068 3.622,-1.774 1.147,-0.706 2.227,-1.522 3.218,-2.436 0.358,-0.34 0.699,-0.696 1.021,-1.071 0.671,-0.785 1.223,-1.604 1.673,-2.438 1.15,-2.03 1.429,-4.333 0.762,-6.614 l 0,0 0,0 0,0 z m -35.702,8.071 c -0.595,-0.301 -1.166,-0.646 -1.672,-0.978 -0.506,-0.332 -0.944,-0.65 -1.368,-0.991 -0.423,-0.339 -0.829,-0.7 -1.217,-1.079 -0.388,-0.379 -0.756,-0.779 -0.96,-1.019 -0.204,-0.238 -0.244,-0.317 -0.268,-0.401 -0.07,-0.253 -0.012,-0.515 0.201,-0.713 0.064,-0.058 0.14,-0.103 0.475,-0.231 0.335,-0.128 0.932,-0.343 1.537,-0.526 0.605,-0.181 1.219,-0.332 1.75,-0.442 0.529,-0.111 0.975,-0.186 1.287,-0.23 0.312,-0.047 0.493,-0.065 0.86,-0.1 0.367,-0.03 0.918,-0.076 1.471,-0.105 0.553,-0.03 1.106,-0.051 1.659,-0.056 l 0,0 0.001,8.143 0,0 c -1.27,-0.244 -2.54,-0.66 -3.756,-1.272 l 0,0 0,0 0,0 z"
         id="path243" />
      <path
         style="fill:#000000;fill-opacity:1"
         inkscape:connector-curvature="0"
         d="m 378.98804,514.60547 c -0.047,-0.403 -0.141,-0.672 -0.273,-0.918 -0.133,-0.247 -0.303,-0.472 -0.506,-0.664 -0.68,-0.629 -1.508,-0.816 -2.323,-0.646 -0.08,-0.203 -0.193,-0.395 -0.333,-0.562 -0.311,-0.371 -0.706,-0.586 -1.098,-0.68 -0.714,-0.185 -1.446,-0.275 -2.178,-0.285 -0.366,-0.005 -0.733,0.013 -1.405,0.105 -0.672,0.095 -1.644,0.271 -2.59,0.544 -0.946,0.274 -1.865,0.648 -2.739,1.105 -0.876,0.455 -1.707,0.995 -2.48,1.608 -0.317,0.258 -0.615,0.539 -0.892,0.841 -1.187,1.313 -1.894,2.764 -1.913,4.156 -0.01,0.369 0.024,0.739 0.07,1.042 0.092,0.58 0.229,0.982 0.414,1.457 0.194,0.481 0.498,1.033 0.822,1.637 0.175,0.322 0.35,0.648 0.468,0.867 0.117,0.217 0.174,0.329 0.253,0.428 0.079,0.098 0.178,0.179 0.287,0.242 0.24,0.146 0.658,0.179 1.087,0.118 0.243,-0.035 0.479,-0.11 0.699,-0.22 0.22,-0.11 0.423,-0.252 0.588,-0.45 0.167,-0.196 0.295,-0.447 0.456,-0.497 0.161,-0.048 0.354,0.105 0.551,0.213 0.197,0.109 0.398,0.171 0.605,0.213 0.207,0.041 0.417,0.06 0.753,0.06 0.337,0 0.799,-0.019 1.196,-0.045 0.398,-0.025 0.732,-0.054 0.961,-0.079 0.229,-0.026 0.356,-0.05 0.637,-0.104 0.575,-0.101 1.583,-0.323 2.388,-0.662 0.816,-0.315 1.769,-0.86 2.742,-1.633 1.006,-0.796 1.879,-1.772 2.524,-2.718 0.692,-0.996 1.077,-1.969 1.206,-2.998 0.072,-0.529 0.072,-1.07 0.023,-1.475 l 0,0 0,0 0,0 z m -13.31,2.598 c -0.719,0.654 -1.393,1.357 -2.017,2.104 0.139,-0.57 0.356,-1.12 0.641,-1.633 0.286,-0.51 0.643,-0.981 1.057,-1.396 0.414,-0.415 0.883,-0.773 1.393,-1.062 1.242,-0.7 2.486,-1.104 3.718,-1.304 -0.869,0.438 -1.707,0.934 -2.508,1.483 -0.802,0.55 -1.565,1.155 -2.284,1.808 l 0,0 0,0 0,0 z m 9.519,-0.344 c -0.081,0.445 -0.278,0.895 -0.608,1.282 -0.155,0.182 -0.334,0.343 -0.531,0.478 -0.495,0.323 -0.989,0.647 -1.501,0.938 -1.021,0.548 -2.03,1.108 -3.115,1.306 -1.075,0.217 -2.186,0.17 -3.214,-0.117 0.508,-0.736 1.098,-1.419 1.752,-2.029 0.656,-0.608 1.378,-1.147 2.151,-1.603 0.771,-0.454 1.594,-0.824 2.445,-1.104 0.646,-0.205 1.295,-0.243 1.922,-0.141 0.166,0.027 0.334,0.105 0.47,0.246 0.246,0.27 0.262,0.512 0.229,0.744 l 0,0 0,0 0,0 z"
         id="path245" />
      <path
         style="fill:#000000;fill-opacity:1"
         inkscape:connector-curvature="0"
         d="m 437.56704,532.70247 c -0.019,-0.62 -0.116,-1.235 -0.294,-1.829 -0.177,-0.593 -0.432,-1.162 -0.757,-1.688 -0.325,-0.527 -0.722,-1.013 -1.171,-1.437 -0.87,-0.746 -1.939,-0.955 -3,-0.637 -0.34,0.104 -0.66,0.27 -1.484,0.887 -0.826,0.62 -2.158,1.693 -3.447,2.815 -1.287,1.12 -2.531,2.293 -3.729,3.508 0.271,-0.788 0.576,-1.562 0.926,-2.317 0.349,-0.756 0.74,-1.492 1.033,-2.037 0.293,-0.545 0.49,-0.896 0.668,-1.261 0.179,-0.362 0.336,-0.734 0.435,-1.002 0.189,-0.509 0.196,-0.726 0.189,-1.073 -0.01,-0.164 -0.035,-0.324 -0.066,-0.449 -0.035,-0.126 -0.076,-0.213 -0.134,-0.288 -0.385,-0.477 -0.937,-0.291 -1.435,0.03 -0.104,0.07 -0.195,0.151 -0.406,0.364 -0.211,0.213 -0.538,0.561 -0.857,0.909 -0.322,0.352 -0.638,0.707 -0.947,1.069 -0.475,0.564 -0.914,1.158 -1.314,1.779 -0.402,0.62 -0.765,1.265 -1.082,1.931 -0.32,0.664 -0.595,1.352 -0.769,1.823 -0.173,0.476 -0.246,0.734 -0.302,0.998 -0.056,0.264 -0.095,0.531 -0.117,0.8 -0.022,0.27 -0.027,0.538 -0.01,0.889 0.035,0.707 0.166,1.643 0.39,2.471 0.108,0.417 0.241,0.828 0.394,1.23 -0.582,1.239 -1.097,2.512 -1.545,3.807 -0.445,1.294 -0.826,2.611 -1.129,3.947 -0.302,1.334 -0.527,2.688 -0.645,3.506 -0.116,0.815 -0.123,1.096 -0.104,1.375 0.077,1.224 0.662,2.473 1.851,3.729 0.81,0.755 1.812,0.73 2.819,-0.116 0.537,-2.07 1.08,-4.133 1.572,-6.199 l 0,0 0.499,-1.652 0,0 c 0.167,-0.549 0.418,-1.07 0.74,-1.877 0.326,-0.805 0.765,-1.881 1.203,-2.955 0.5,-0.094 1.002,-0.199 1.5,-0.311 0.496,-0.113 0.994,-0.234 1.408,-0.35 0.788,-0.218 1.371,-0.443 2.031,-0.793 0.309,-0.166 0.607,-0.349 1.01,-0.626 0.398,-0.272 0.896,-0.645 1.383,-1.03 0.487,-0.387 0.959,-0.789 1.354,-1.154 0.826,-0.762 1.353,-1.398 1.858,-2.123 1.109,-1.596 1.556,-3.081 1.481,-4.663 l 0,0 0,0 0,0 z m -4.153,2.3 c -0.27,0.431 -0.604,0.816 -0.99,1.146 -0.692,0.567 -1.403,1.082 -2.122,1.551 -0.604,0.371 -1.195,0.352 -1.712,0.133 0.341,-0.771 0.732,-1.521 1.169,-2.243 0.438,-0.721 0.921,-1.415 1.446,-2.073 0.525,-0.659 1.094,-1.285 1.699,-1.87 0.299,-0.279 0.553,-0.256 0.787,-0.185 0.24,0.06 0.495,0.422 0.482,0.647 0.045,0.989 -0.211,2.017 -0.759,2.894 l 0,0 0,0 0,0 z"
         id="path247" />
    </g>
  </g>
</svg>
